<?xml version="1.0"?>
<svg xmlns="http://www.w3.org/2000/svg" xmlns:xlink="http://www.w3.org/1999/xlink" xmlns:svgjs="http://svgjs.com/svgjs" version="1.1" width="512" height="512" x="0" y="0" viewBox="0 0 512 512" style="enable-background:new 0 0 512 512" xml:space="preserve" class=""><g transform="matrix(-1,-2.4492935982947064e-16,-2.4492935982947064e-16,1,512.000244140625,1.1368683772161603e-13)">
<g xmlns="http://www.w3.org/2000/svg">
	<g>
		<path d="M127.466,319.2h353.467c7.869,0,14.401-6.082,14.962-13.932l16.067-224.933c0.297-4.153-1.147-8.243-3.984-11.29    c-2.837-3.048-6.813-4.778-10.978-4.778H319.199v-33.2c0-8.284-6.716-15-15-15s-15,6.716-15,15v33.2H122.524l-4.21-50.513    c-0.648-7.773-7.147-13.753-14.948-13.753H15c-8.284,0-15,6.716-15,15s6.716,15,15,15h74.564L93.957,82.7l17.381,208.594    c-27.061,7.147-47.071,31.83-47.071,61.106c0,34.849,28.351,63.2,63.199,63.2h2.491c-5.986,9.655-9.454,21.028-9.454,33.2    c0,34.849,28.352,63.2,63.2,63.2c34.849,0,63.199-28.352,63.199-63.2c0-12.172-3.467-23.545-9.453-33.2h141.537    c-5.986,9.655-9.453,21.028-9.453,33.2c0,34.849,28.351,63.2,63.199,63.2c34.849,0,63.2-28.352,63.2-63.2    c0-12.54-3.686-24.229-10.011-34.068c5.828-2.058,10.011-7.6,10.011-14.132c0-8.284-6.716-15-15-15H127.466    c-18.306,0-33.199-14.893-33.199-33.2C94.267,334.094,109.16,319.2,127.466,319.2z M289.199,94.268v93.386l-22.593-22.593    c-5.857-5.857-15.355-5.857-21.213,0c-5.858,5.857-5.858,15.355,0,21.213l48.199,48.199c2.929,2.93,6.768,4.393,10.606,4.393    c3.838,0,7.678-1.465,10.607-4.393l48.2-48.199c5.858-5.857,5.858-15.355,0-21.213c-5.857-5.858-15.355-5.858-21.213,0    l-22.594,22.593V94.268h161.691l-13.925,194.933H141.271L125.025,94.268H289.199z M432.732,415.601    c18.307,0,33.2,14.894,33.2,33.2c0.001,18.306-14.893,33.2-33.2,33.2c-18.306,0-33.199-14.894-33.199-33.2    C399.533,430.494,414.427,415.601,432.732,415.601z M183.703,415.601c18.306,0,33.199,14.893,33.199,33.2    s-14.893,33.2-33.199,33.2c-18.307,0-33.2-14.894-33.2-33.2C150.503,430.494,165.397,415.601,183.703,415.601z" fill="#ffffff" data-original="#000000" style="" class=""/>
	</g>
</g>
<g xmlns="http://www.w3.org/2000/svg">
</g>
<g xmlns="http://www.w3.org/2000/svg">
</g>
<g xmlns="http://www.w3.org/2000/svg">
</g>
<g xmlns="http://www.w3.org/2000/svg">
</g>
<g xmlns="http://www.w3.org/2000/svg">
</g>
<g xmlns="http://www.w3.org/2000/svg">
</g>
<g xmlns="http://www.w3.org/2000/svg">
</g>
<g xmlns="http://www.w3.org/2000/svg">
</g>
<g xmlns="http://www.w3.org/2000/svg">
</g>
<g xmlns="http://www.w3.org/2000/svg">
</g>
<g xmlns="http://www.w3.org/2000/svg">
</g>
<g xmlns="http://www.w3.org/2000/svg">
</g>
<g xmlns="http://www.w3.org/2000/svg">
</g>
<g xmlns="http://www.w3.org/2000/svg">
</g>
<g xmlns="http://www.w3.org/2000/svg">
</g>
</g></svg>
